<?xml version="1.0" encoding="UTF-8" standalone="no"?>
<!-- Created with Inkscape (http://www.inkscape.org/) -->

<svg
   xmlns:dc="http://purl.org/dc/elements/1.1/"
   xmlns:cc="http://creativecommons.org/ns#"
   xmlns:rdf="http://www.w3.org/1999/02/22-rdf-syntax-ns#"
   xmlns:svg="http://www.w3.org/2000/svg"
   xmlns="http://www.w3.org/2000/svg"
   xmlns:sodipodi="http://sodipodi.sourceforge.net/DTD/sodipodi-0.dtd"
   xmlns:inkscape="http://www.inkscape.org/namespaces/inkscape"
   width="508mm"
   height="285.75mm"
   viewBox="0 0 508 285.75"
   version="1.1"
   id="svg1196"
   inkscape:version="0.92.4 (5da689c313, 2019-01-14)"
   sodipodi:docname="logo-gerak-main.svg"
   inkscape:export-filename="./logo-gerak-main.png"
   inkscape:export-xdpi="96.000008"
   inkscape:export-ydpi="96.000008">
  <defs
     id="defs1190" />
  <sodipodi:namedview
     id="base"
     pagecolor="#ffffff"
     bordercolor="#666666"
     borderopacity="1.0"
     inkscape:pageopacity="0.0"
     inkscape:pageshadow="2"
     inkscape:zoom="0.35"
     inkscape:cx="400"
     inkscape:cy="560"
     inkscape:document-units="mm"
     inkscape:current-layer="layer2"
     showgrid="false" />
  <metadata
     id="metadata1193">
    <rdf:RDF>
      <cc:Work
         rdf:about="">
        <dc:format>image/svg+xml</dc:format>
        <dc:type
           rdf:resource="http://purl.org/dc/dcmitype/StillImage" />
        <dc:title />
      </cc:Work>
    </rdf:RDF>
  </metadata>
  <g
     inkscape:label="Layer 1"
     inkscape:groupmode="layer"
     id="layer1"
     transform="translate(-96.36898,358.57619)">
    <rect
       style="opacity:1;vector-effect:none;fill:none;fill-opacity:1;stroke:none;stroke-width:0.9514237;stroke-linecap:round;stroke-linejoin:miter;stroke-miterlimit:4;stroke-dasharray:none;stroke-dashoffset:0;stroke-opacity:1;paint-order:fill markers stroke"
       id="rect1747"
       width="229.80952"
       height="78.44165"
       x="235.46423"
       y="-254.922" />
    <path
       style="fill:#1a1a1a;stroke-width:1.83230221"
       d="m 253.64371,-188.83891 c -3.27345,-0.0146 -7.28368,-0.0261 -7.3147,-0.0572 -0.0456,-0.0456 -0.0694,-2.53342 -0.0769,-5.22069 v 5.27784 z"
       id="path847"
       inkscape:connector-curvature="0" />
  </g>
  <g
     inkscape:groupmode="layer"
     id="layer2"
     inkscape:label="latar">
    <rect
       style="opacity:1;vector-effect:none;fill:#ffffff;fill-opacity:1;stroke:none;stroke-width:1.59812474;stroke-linecap:round;stroke-linejoin:miter;stroke-miterlimit:4;stroke-dasharray:none;stroke-dashoffset:0;stroke-opacity:1;paint-order:fill markers stroke"
       id="rect815"
       width="508"
       height="285.75"
       x="96.36898"
       y="72.826187"
       transform="matrix(1,0,0,-1,-96.368981,358.57619)" />
  </g>
  <g
     inkscape:groupmode="layer"
     id="layer3"
     inkscape:label="orang">
    <path
       transform="translate(-96.368981,358.57619)"
       style="fill:#1a1a1a;stroke-width:1.83230221"
       d="m 246.2521,-206.37385 v 9.73638 c 0.006,-2.52752 0.0254,-4.80445 0.0697,-4.80445 0.0421,0 2.41317,0.63405 5.27156,1.40728 2.86023,0.77324 5.4529,1.4074 5.76439,1.41087 0.33834,-0.002 0.67256,-0.074 0.98207,-0.21065 0.22905,-0.1191 1.87636,-1.5025 3.66469,-3.0746 1.78466,-1.57028 3.33451,-2.93182 3.44445,-3.02344 0.0215,-0.0183 0.0459,-0.0289 0.0763,-0.0284 0.21281,0.003 0.72417,0.5461 2.67214,2.75861 l 2.55064,2.90045 -1.32649,4.96005 c -0.73109,2.7283 -1.38348,5.08855 -1.45127,5.24612 h -0.002 l -0.11251,0.25674 h 9.51735 c -2.78132,-0.0214 -4.48398,-0.0542 -4.48398,-0.11041 0,-0.077 0.62646,-2.47722 1.39053,-5.33559 0.76407,-2.86023 1.38903,-5.41439 1.38903,-5.67642 0,-0.26201 -0.0788,-0.65949 -0.17595,-0.88303 -0.14842,-0.34264 -1.93659,-2.43708 -6.02263,-7.04899 l -0.7367,-0.83007 1.90012,-3.3056 c 1.04441,-1.81765 1.94043,-3.30351 1.98988,-3.30351 0.0476,0 0.7898,1.46217 1.64548,3.25234 0.85752,1.78832 1.67285,3.37698 1.81393,3.53272 0.13926,0.15392 0.50204,0.37382 0.80254,0.48925 1.06457,0.40677 1.23126,0.33703 6.56693,-2.78704 2.70081,-1.57944 5.04055,-2.99381 5.20363,-3.14223 1.09571,-1.0041 0.86855,-2.93177 -0.43239,-3.69401 -0.37562,-0.21987 -0.70531,-0.30432 -1.20919,-0.30432 -0.66329,0 -0.82284,0.0772 -3.84064,1.84536 -4.09336,2.39849 -4.31679,2.5231 -4.38643,2.44981 -0.12642,-0.13376 -2.86573,-5.68748 -2.86573,-5.80658 0,-0.0733 0.27303,-0.12837 0.60834,-0.12837 1.96056,0 4.30044,-1.49165 5.30088,-3.37892 0.78056,-1.47134 1.00213,-2.75573 0.73461,-4.2802 -0.54054,-3.10391 -2.98296,-5.28784 -6.09055,-5.44541 -2.00454,-0.10259 -3.496,0.43222 -4.91787,1.76247 -2.08699,1.95321 -2.66232,5.15238 -1.38155,7.68096 0.28401,0.55885 0.29507,0.63048 0.10084,0.63048 -0.18139,0 -3.13334,0.18323 -8.8318,0.54969 -0.44525,0.0293 -0.95102,0.15018 -1.18556,0.28577 -0.29866,0.17223 -1.20728,1.43094 -3.32176,4.59349 -2.70814,4.05489 -2.91348,4.40316 -2.96478,5.01332 -0.15392,1.81764 1.6857,3.10395 3.31278,2.31605 0.53137,-0.25835 0.77689,-0.57546 3.04528,-3.9304 2.36367,-3.49786 2.48293,-3.65199 2.87322,-3.6572 0.21987,-0.004 1.48394,-0.0825 2.80319,-0.17415 1.31926,-0.0917 2.41883,-0.14823 2.44263,-0.12808 0.0696,0.0586 -4.27849,7.54704 -4.57166,7.86769 -0.14658,0.16491 -1.82301,1.6657 -3.71944,3.33493 l -3.45043,3.036 -4.6318,-1.23852 c -2.54874,-0.67979 -4.90344,-1.31739 -5.23326,-1.41267 z"
       id="path845"
       inkscape:connector-curvature="0" />
  </g>
  <g
     inkscape:groupmode="layer"
     id="layer4"
     inkscape:label="rumah">
    <path
       transform="translate(-96.368981,358.57619)"
       style="fill:#1a1a1a;stroke-width:1.83230221"
       d="m 272.28102,-247.26648 c -0.38851,0.004 -0.79021,0.14031 -1.30554,0.41653 -2.20426,1.1855 -28.38603,16.79853 -28.73966,17.14115 -0.22354,0.21622 -0.46569,0.60094 -0.53532,0.85012 -0.0842,0.3005 -0.12807,7.81132 -0.12807,21.58474 0,18.78292 0.0201,21.17748 0.1942,21.59342 0.22514,0.58749 0.6787,1.05879 1.25707,1.30644 0.48739,0.22535 1.57391,0.23471 29.29114,0.23819 h 28.78543 l 0.55328,-0.26751 c 0.35738,-0.18244 0.66394,-0.45047 0.89231,-0.7804 l 0.33903,-0.51318 0.0329,-21.51113 c 0.0312,-21.40678 0.0312,-21.51482 -0.22532,-22.01503 -0.16124,-0.31699 -0.50031,-0.66332 -0.91624,-0.9345 -1.15253,-0.75493 -28.03414,-16.64468 -28.56551,-16.88472 -0.33347,-0.15151 -0.62753,-0.22756 -0.92971,-0.22412 z m 0.006,5.16024 c 0.066,0 5.94035,3.44841 13.05336,7.66271 l 12.93606,7.66271 v 18.98442 h -0.003 v 18.98472 h -12.69249 c -3.81029,0 -6.17404,-0.0117 -8.19834,-0.0272 -0.002,-2e-5 -0.007,2e-5 -0.01,0 h -9.51735 l -0.012,0.0272 H 257.1278 c -1.90207,0 -1.92532,-0.0203 -3.48485,-0.0272 h -7.39161 v -5.27784 c -0.003,-0.90259 -0.002,-1.63103 0,-2.52072 v -9.73638 l -0.008,-0.002 0.004,-10.19301 0.004,-10.19331 2.17482,-1.28609 12.9582,-7.67199 c 5.92933,-3.51252 10.83622,-6.38559 10.90219,-6.38559 z"
       id="path817"
       inkscape:connector-curvature="0" />
  </g>
  <g
     inkscape:groupmode="layer"
     id="layer5"
     inkscape:label="teks-1">
    <path
       transform="translate(-96.368981,358.57619)"
       style="fill:#1a1a1a;stroke-width:1.83230221"
       d="m 314.05998,-202.97728 v 8.61546 h -0.002 v 8.61547 l 3.31668,-0.0697 c 3.67743,-0.077 4.55678,-0.21981 6.15638,-0.99854 1.02426,-0.49656 2.3178,-1.76997 2.86933,-2.82354 0.76773,-1.46035 0.97843,-2.51757 0.97669,-4.85742 -0.002,-2.31603 -0.14648,-3.08558 -0.85191,-4.54592 -0.56435,-1.16901 -1.81403,-2.3986 -3.01236,-2.96479 -1.70588,-0.80437 -2.08161,-0.86124 -5.94961,-0.91983 z m 31.4441,0 v 8.51462 c 0,4.68153 0.0403,8.55321 0.088,8.6008 0.0476,0.0496 0.91441,0.0713 1.92585,0.053 l 1.83788,-0.0347 0.0329,-3.06742 0.0365,-3.06892 1.08112,0.0365 1.08112,0.0368 1.62153,3.0324 1.61974,3.02882 2.16225,0.0368 2.16194,0.0329 -0.21245,-0.41234 c -0.11726,-0.2272 -0.9914,-1.78087 -1.94052,-3.45193 l -1.72417,-3.0363 0.61941,-0.37374 c 0.82454,-0.4947 1.55552,-1.30463 1.96594,-2.1805 0.31336,-0.66694 0.33186,-0.83549 0.33186,-2.42227 -0.004,-1.475 -0.0404,-1.78441 -0.27859,-2.29929 -0.55885,-1.21666 -1.68747,-2.15131 -3.22661,-2.66436 -0.71642,-0.23819 -1.14715,-0.26569 -4.98399,-0.3115 z m 29.30041,0 v 8.51462 c 0,4.68153 0.0403,8.55141 0.088,8.59901 h -0.002 c 0.0476,0.0515 0.91441,0.0734 1.92586,0.0551 l 1.83758,-0.035 0.035,-3.06712 0.0329,-3.06922 1.08649,0.0365 1.08472,0.0368 1.61616,3.03061 1.61614,3.03241 2.16583,0.0329 2.16194,0.035 -0.14662,-0.28576 c -0.0824,-0.15942 -0.90692,-1.62538 -1.8304,-3.26162 -0.92532,-1.63258 -1.71672,-3.05982 -1.75887,-3.16976 -0.055,-0.14109 0.10614,-0.31705 0.55507,-0.60474 0.82029,-0.51987 1.47596,-1.26203 1.89084,-2.14011 0.30603,-0.65595 0.33364,-0.83566 0.33364,-2.41509 0,-1.48049 -0.0368,-1.78087 -0.27499,-2.29391 -0.56069,-1.21665 -1.70043,-2.15669 -3.23589,-2.66974 -0.71642,-0.23819 -1.14684,-0.26569 -4.9837,-0.3115 z m 33.5917,0.0129 v 8.50923 c 0,4.67788 0.0386,8.54393 0.0844,8.58973 l -0.008,-0.002 c 0.0458,0.0477 0.84654,0.0841 1.78102,0.0841 h 1.69843 l -0.0658,-4.45226 c -0.0367,-2.44796 -0.12656,-4.9052 -0.20168,-5.46038 -0.37379,-2.7851 -0.30969,-2.8347 0.49103,-0.37942 0.29317,0.90333 1.1308,3.24876 1.86003,5.20932 l 1.32649,3.56743 h 2.09072 l 1.3229,-3.56743 c 0.72743,-1.9624 1.59574,-4.34976 1.92556,-5.30807 0.33165,-0.95462 0.62666,-1.71696 0.65412,-1.68766 0.0293,0.0275 -0.0457,0.89602 -0.16668,1.92944 -0.16306,1.39072 -0.22711,2.9409 -0.22711,5.98253 v 4.10426 l 1.73704,0.0332 1.73704,0.0365 v -17.18874 l -2.10719,0.0347 -2.10718,0.035 -0.79717,2.20952 c -1.02792,2.85839 -2.51378,7.23402 -2.69517,7.9413 -0.0788,0.30415 -0.18888,0.50396 -0.24746,0.44166 -0.0587,-0.0605 -0.30949,-0.76401 -0.55688,-1.56288 -0.58238,-1.7566 -1.19343,-3.50365 -1.83248,-5.24044 l -1.37766,-3.78916 -2.15865,-0.0332 z m -74.74705,0.004 -0.44346,1.42375 -2.60181,8.30576 c -1.18551,3.78553 -2.18778,7.01055 -2.22808,7.16628 l -0.0733,0.28397 h 3.90646 l 0.54251,-2.08324 0.54221,-2.08355 h 5.23684 l 0.14662,0.59936 c 0.0806,0.3298 0.32244,1.26787 0.53682,2.08325 l 0.38841,1.48418 h 2.00454 c 1.52082,0 2.00096,-0.0386 2.00096,-0.15769 -0.004,-0.0861 -1.18931,-3.93757 -2.63682,-8.55682 l -2.63114,-8.39552 -2.34537,-0.0368 z m 98.0338,0 -2.63502,8.43234 c -1.44935,4.63756 -2.65864,8.50178 -2.68979,8.58973 v 3e-4 c -0.0421,0.12087 0.39217,0.1574 1.91299,0.1574 h 1.96804 l 0.0859,-0.34801 c 0.0476,-0.19055 0.29147,-1.11398 0.5425,-2.05212 l 0.45423,-1.70412 2.61288,-0.0329 2.61289,-0.035 0.13945,0.53862 0.5422,2.05601 0.40307,1.51351 1.98989,0.0365 c 1.83596,0.0311 1.9827,0.0164 1.9827,-0.19061 -0.004,-0.12276 -1.18201,-3.97421 -2.62038,-8.55861 l -2.61468,-8.33329 -2.34148,-0.0368 z m -70.01229,0.004 v 8.59182 l -0.002,-0.002 v 8.59362 l 1.92764,-0.0365 1.92375,-0.0332 0.035,-8.55681 0.0329,-8.55682 z m 29.15199,0 0.0569,5.65277 c 0.0623,6.28662 0.11339,6.75561 0.91594,8.47064 0.75491,1.60693 2.16772,2.70441 4.0055,3.10752 l 0.002,-0.002 c 0.61493,0.11324 1.23845,0.17422 1.86362,0.18343 3.43008,0.0348 5.57915,-1.54837 6.47147,-4.76406 0.25285,-0.90698 0.27139,-1.32285 0.31718,-6.80691 l 0.0476,-5.84159 h -3.67935 v 4.89782 c 0,5.29902 -0.10254,6.67679 -0.56795,7.69922 -0.54969,1.20565 -1.96784,1.78297 -3.37322,1.37436 -0.82636,-0.24003 -1.39632,-0.7935 -1.77744,-1.73165 -0.26936,-0.66512 -0.27837,-0.84471 -0.31868,-6.4607 l -0.0422,-5.77905 z m 52.80861,0.002 v 8.58614 8.58823 h 3.78736 v -7.1992 h 5.93675 v 7.20638 l 1.92585,-0.0347 1.92556,-0.035 0.0332,-8.55681 0.0329,-8.55502 h -3.91572 v 6.56723 h -5.93675 v -6.56723 z m -107.73159,2.99531 c 0.004,-0.003 0.008,-0.003 0.0108,6.1e-4 0.0788,0.0916 1.76606,6.6862 1.76606,6.88591 -0.002,0.14293 -3.53631,0.11725 -3.53631,-0.0293 0,-0.0678 0.19239,-0.84841 0.43059,-1.73524 0.23636,-0.88867 0.61752,-2.42594 0.84473,-3.41722 0.21301,-0.9276 0.42123,-1.66055 0.48416,-1.70472 z m 13.52016,0.006 1.673,0.0476 c 1.4695,0.044 1.75162,0.0878 2.30498,0.36267 0.81537,0.40675 1.09937,0.89433 1.09937,1.89294 0,1.24962 -0.61025,2.07221 -1.77743,2.39654 h -0.002 c -0.25103,0.0697 -1.09561,0.12663 -1.87618,0.12837 h -1.42195 z m 29.30041,0 1.67271,0.0476 c 1.46951,0.044 1.7501,0.0878 2.30348,0.36267 0.81535,0.40492 1.09937,0.89433 1.09937,1.89294 0,1.24962 -0.61025,2.07038 -1.77743,2.39654 -0.25101,0.0697 -1.0977,0.12663 -1.87828,0.12837 h -1.41985 z m 55.17255,0.004 c 0.0421,-0.0476 0.47987,1.50044 0.97459,3.44266 l 0.89619,3.52913 h -1.81034 c -0.99862,0 -1.81394,-0.0274 -1.81394,-0.0605 0,-0.033 0.19393,-0.78619 0.4303,-1.673 0.23819,-0.88867 0.61399,-2.41109 0.83755,-3.38221 0.22353,-0.97293 0.44163,-1.80668 0.48565,-1.85613 z m -115.9811,0.088 0.94706,0.0329 c 1.26429,0.044 2.01372,0.2309 2.70266,0.66699 1.26612,0.80252 1.88002,2.30869 1.89832,4.60457 0.007,1.59044 -0.17228,2.46059 -0.72563,3.51417 -0.45625,0.87035 -1.04075,1.38718 -1.96057,1.73165 -0.37195,0.13927 -1.17625,0.28754 -1.80107,0.33155 l -1.1269,0.0808 0.0329,-5.48221 z"
       id="path1768"
       inkscape:connector-curvature="0"
       sodipodi:nodetypes="cccccccccccccsccccccccccccccccccccccscccccccccccccccccscccccsccscccccccccccsccccccccccccccccccccccccccscccccccccsccccccccccccccccccccccccccccccccccscccccccccccccccccccccccccsccccccsccccccccscccccccssccccccccccccc" />
  </g>
  <g
     inkscape:groupmode="layer"
     id="layer6"
     inkscape:label="teks-2">
    <path
       transform="translate(-96.368981,358.57619)"
       style="fill:#1a1a1a;stroke-width:1.83230221"
       d="m 328.1379,-241.08197 c -3.1053,-0.0298 -6.27059,0.80475 -8.86502,2.40222 -1.49332,0.92165 -3.64619,3.07272 -4.56417,4.56238 -1.29991,2.11855 -2.14835,4.48288 -2.492,6.94456 -0.28032,1.91109 -0.18869,5.91286 0.17775,7.67737 1.32693,6.39396 5.6132,10.67357 11.9076,11.93065 h 7.25815 c 2.2205,-0.50124 4.50513,-1.52002 6.09624,-2.71792 l 1.02606,-0.77501 v -15.13481 h -11.8696 v 5.92927 l 2.68231,0.0329 2.6844,0.0365 0.035,2.80918 0.0347,2.81068 -0.41234,0.25644 c -1.17084,0.72192 -3.79999,0.92903 -5.81735,0.45812 -3.89365,-0.90881 -6.01746,-3.86621 -6.40774,-8.92337 -0.50939,-6.61828 2.3801,-11.19545 7.50322,-11.87708 0.71484,-0.10728 1.44156,-0.10759 2.15656,-0.001 1.68938,0.22537 2.47001,0.56798 4.18505,1.84326 l 0.89799,0.66699 1.92376,-2.35644 1.92585,-2.35645 -0.61193,-0.54041 c -1.5648,-1.38522 -4.17779,-2.82538 -5.87451,-3.23948 -1.15898,-0.2824 -2.36488,-0.42643 -3.58,-0.43807 z m 43.25507,0.60474 v 16.29823 16.29702 h 7.32547 v -11.75051 l 2.05212,0.0347 2.05214,0.035 3.09285,5.8377 3.09495,5.8377 4.14286,0.003 4.14075,0.004 -0.3115,-0.53682 c -1.58861,-2.75395 -7.01757,-12.40468 -7.01757,-12.45969 0.004,-0.0421 0.33713,-0.23629 0.74389,-0.43418 2.1218,-1.03708 4.01087,-3.38429 4.60637,-5.71681 0.62116,-2.43697 0.48371,-5.59599 -0.32616,-7.53823 -1.21849,-2.91337 -3.69193,-4.73998 -7.49396,-5.53339 -1.3394,-0.2785 -1.65279,-0.29149 -8.74563,-0.33364 z m -25.88889,0.0129 v 16.27069 c 0,8.94897 0.0386,16.30772 0.0844,16.35538 0.0458,0.0458 4.76408,0.0841 10.48086,0.0841 h 10.39828 v -6.31407 h -13.51148 v -7.45205 h 11.11285 v -6.18751 h -11.11464 v -6.56692 h 13.00938 v -6.1896 z m 64.58696,0.002 -5.03876,16.13334 c -2.77224,8.87187 -5.06258,16.20464 -5.09382,16.29284 -0.0342,0.12665 0.73438,0.1521 3.70658,0.12657 l 3.76015,-0.0329 0.96919,-3.78917 0.96922,-3.78946 5.00764,-0.0329 5.00583,-0.0329 0.088,0.34801 c 0.0477,0.19423 0.48916,1.91312 0.98388,3.82237 l 0.89799,3.47378 3.89539,0.0332 3.89359,0.0329 -0.0733,-0.28577 c -0.0403,-0.15757 -2.31965,-7.46853 -5.06627,-16.24526 -2.74663,-8.77671 -4.99298,-15.98141 -4.99298,-16.00707 0,-0.0257 -2.00454,-0.0476 -4.45615,-0.0476 z m 22.04615,0 v 16.29104 h 0.002 v 16.29104 h 7.32368 v -8.73276 l 1.83938,-2.42228 c 1.00776,-1.33208 1.8764,-2.43336 1.92406,-2.44981 0.0494,-0.0165 1.85252,3.02335 4.00729,6.75575 l 3.91933,6.78506 4.00521,0.0347 c 2.20243,0.0184 4.00731,-1.5e-4 4.00731,-0.0368 0,-0.0385 -2.59076,-4.42495 -5.75332,-9.74596 -3.16439,-5.32284 -5.72234,-9.75518 -5.68748,-9.8468 0.0366,-0.0935 2.18777,-2.97205 4.7823,-6.39846 2.59454,-3.42457 4.76034,-6.29386 4.81165,-6.37631 0.0696,-0.11362 -0.86501,-0.14842 -3.94327,-0.14842 h -4.03275 l -4.84634,6.68781 c -2.66417,3.67925 -4.88511,6.69177 -4.93821,6.6935 -0.0531,0.002 -0.0952,-3.00671 -0.0952,-6.68781 v -6.6935 z m -17.82999,5.54954 c 0.12354,-0.038 0.32106,0.68523 1.28819,4.57943 0.93447,3.76721 1.98416,7.8807 2.22419,8.71989 0.0605,0.20517 -0.16124,0.21994 -3.41722,0.21994 -1.91475,0 -3.48127,-0.0164 -3.48127,-0.0347 0,-0.0183 0.33531,-1.28287 0.7439,-2.80918 0.5825,-2.22304 1.13538,-4.45362 1.65833,-6.69141 0.50206,-2.15297 0.93435,-3.93761 0.95993,-3.96691 0.008,-0.009 0.0157,-0.0145 0.024,-0.017 z m -35.58876,0.22951 2.93516,0.0622 c 3.17537,0.0678 3.88468,0.18349 5.05551,0.81929 1.24963,0.67977 1.78077,1.74773 1.76247,3.56355 -0.0202,2.35266 -1.17251,3.84967 -3.48305,4.5148 h 0.002 c -0.45075,0.13008 -1.52625,0.20884 -3.463,0.25285 l -2.80888,0.0661 z"
       id="path826"
       inkscape:connector-curvature="0" />
  </g>
</svg>
